<?xml version="1.0" encoding="iso-8859-1"?>
<!-- Generator: Adobe Illustrator 19.0.0, SVG Export Plug-In . SVG Version: 6.00 Build 0)  -->
<svg version="1.1" id="Layer_1" xmlns="http://www.w3.org/2000/svg" xmlns:xlink="http://www.w3.org/1999/xlink" x="0px" y="0px"
	 viewBox="0 0 512 512" style="enable-background:new 0 0 512 512;" xml:space="preserve">
<polygon style="fill:#63A59F;" points="336.985,99.271 256,0 175.015,99.271 175.015,269.673 336.985,269.673 "/>
<polygon style="fill:#71C9BF;" points="256,0 175.015,99.271 175.015,269.673 256,269.673 "/>
<path style="fill:#4E878D;" d="M336.985,99.271L336.985,99.271c24.828-22.181,63.671-16.53,81.151,11.805l30.776,49.891v61.697
	v61.697v104.242L320.303,511.999h-64.304h-64.304L63.088,388.605V284.363v-61.697v-61.697l30.776-49.891
	c17.479-28.335,56.322-33.986,81.151-11.805l0,0l67.464,136.469c5.536,11.199,21.506,11.199,27.043,0L336.985,99.271z"/>
<path style="fill:#59999F;" d="M256,512h-64.304L63.088,388.605V284.363v-61.697v-61.697l30.776-49.891
	c17.479-28.335,56.322-33.986,81.151-11.805l0,0l67.464,136.469c2.767,5.599,8.144,8.399,13.521,8.399L256,512z"/>
<circle style="fill:#F6F6F6;" cx="84.403" cy="217.647" r="73.422"/>
<circle style="fill:#2F3031;" cx="84.403" cy="217.647" r="19.214"/>
<circle style="fill:#DADADA;" cx="427.597" cy="217.647" r="73.422"/>
<circle style="fill:#0E1216;" cx="427.597" cy="217.647" r="19.214"/>
<path style="fill:#63A59F;" d="M62.305,376.193v12.412l129.391,123.123H256h64.304l129.391-123.123V376.49
	C321.831,349.524,190.169,349.42,62.305,376.193z"/>
<path style="fill:#71C9BF;" d="M62.305,376.193v12.412l129.391,123.123H256l0.001-155.538
	C191.125,356.14,126.87,362.807,62.305,376.193z"/>
<g>
</g>
<g>
</g>
<g>
</g>
<g>
</g>
<g>
</g>
<g>
</g>
<g>
</g>
<g>
</g>
<g>
</g>
<g>
</g>
<g>
</g>
<g>
</g>
<g>
</g>
<g>
</g>
<g>
</g>
</svg>
